<svg height="130pt" sodipodi:docbase="C:\Documents and Settings\Lion\Desktop" sodipodi:docname="dice-prepared.svg" sodipodi:version=".32" width="450pt" xmlns="http://www.w3.org/2000/svg" xmlns:sodipodi="http://inkscape.sourceforge.net/DTD/sodipodi-0.dtd"><sodipodi:namedview bordercolor="#666666" borderopacity="1" pagecolor="#ffffff"/><g color="#000" fill-rule="evenodd" stroke="#000" stroke-width="3"><g transform="matrix(.5 0 0 .5 424.393 -101.748)"><rect height="150" rx="50" ry="50" width="150" x="25.5" y="290.362" fill="#fff" overflow="visible"/><path d="M337.5 227.362a12.5 12.5 0 1 1-25 0 12.5 12.5 0 1 1 25 0z" sodipodi:cx="325" sodipodi:cy="227.362" sodipodi:rx="12.5" sodipodi:ry="12.5" sodipodi:type="arc" transform="translate(-261 101.5)" overflow="visible"/><path d="M337.5 227.362a12.5 12.5 0 1 1-25 0 12.5 12.5 0 1 1 25 0z" sodipodi:cx="325" sodipodi:cy="227.362" sodipodi:rx="12.5" sodipodi:ry="12.5" sodipodi:type="arc" transform="translate(-261 173.5)" overflow="visible"/><path d="M337.5 227.362a12.5 12.5 0 1 1-25 0 12.5 12.5 0 1 1 25 0z" sodipodi:cx="325" sodipodi:cy="227.362" sodipodi:rx="12.5" sodipodi:ry="12.5" sodipodi:type="arc" transform="translate(-261 137.5)" overflow="visible"/><path d="M337.5 227.362a12.5 12.5 0 1 1-25 0 12.5 12.5 0 1 1 25 0z" sodipodi:cx="325" sodipodi:cy="227.362" sodipodi:rx="12.5" sodipodi:ry="12.5" sodipodi:type="arc" transform="translate(-189 101.5)" overflow="visible"/><path d="M337.5 227.362a12.5 12.5 0 1 1-25 0 12.5 12.5 0 1 1 25 0z" sodipodi:cx="325" sodipodi:cy="227.362" sodipodi:rx="12.5" sodipodi:ry="12.5" sodipodi:type="arc" transform="translate(-189 173.5)" overflow="visible"/><path d="M337.5 227.362a12.5 12.5 0 1 1-25 0 12.5 12.5 0 1 1 25 0z" sodipodi:cx="325" sodipodi:cy="227.362" sodipodi:rx="12.5" sodipodi:ry="12.5" sodipodi:type="arc" transform="translate(-189 137.5)" overflow="visible"/></g><g transform="matrix(.5 0 0 .5 251.643 -95.497)"><rect height="150" rx="50" ry="50" width="150" x="213" y="277.862" fill="#fff" overflow="visible"/><path d="M337.5 227.362a12.5 12.5 0 1 1-25 0 12.5 12.5 0 1 1 25 0z" sodipodi:cx="325" sodipodi:cy="227.362" sodipodi:rx="12.5" sodipodi:ry="12.5" sodipodi:type="arc" transform="translate(-73.5 89)" overflow="visible"/><path d="M337.5 227.362a12.5 12.5 0 1 1-25 0 12.5 12.5 0 1 1 25 0z" sodipodi:cx="325" sodipodi:cy="227.362" sodipodi:rx="12.5" sodipodi:ry="12.5" sodipodi:type="arc" transform="translate(-73.5 161)" overflow="visible"/><path d="M337.5 227.362a12.5 12.5 0 1 1-25 0 12.5 12.5 0 1 1 25 0z" sodipodi:cx="325" sodipodi:cy="227.362" sodipodi:rx="12.5" sodipodi:ry="12.5" sodipodi:type="arc" transform="translate(-1.5 89)" overflow="visible"/><path d="M337.5 227.362a12.5 12.5 0 1 1-25 0 12.5 12.5 0 1 1 25 0z" sodipodi:cx="325" sodipodi:cy="227.362" sodipodi:rx="12.5" sodipodi:ry="12.5" sodipodi:type="arc" transform="translate(-1.5 161)" overflow="visible"/><path d="M337.5 227.362a12.5 12.5 0 1 1-25 0 12.5 12.5 0 1 1 25 0z" sodipodi:cx="325" sodipodi:cy="227.362" sodipodi:rx="12.5" sodipodi:ry="12.5" sodipodi:type="arc" transform="translate(-37.5 125)" overflow="visible"/></g><g transform="matrix(.5 0 0 .5 66.393 -89.247)"><rect height="150" rx="50" ry="50" width="150" x="425.5" y="265.362" fill="#fff" overflow="visible"/><path d="M337.5 227.362a12.5 12.5 0 1 1-25 0 12.5 12.5 0 1 1 25 0z" sodipodi:cx="325" sodipodi:cy="227.362" sodipodi:rx="12.5" sodipodi:ry="12.5" sodipodi:type="arc" transform="translate(139 76.5)" overflow="visible"/><path d="M337.5 227.362a12.5 12.5 0 1 1-25 0 12.5 12.5 0 1 1 25 0z" sodipodi:cx="325" sodipodi:cy="227.362" sodipodi:rx="12.5" sodipodi:ry="12.5" sodipodi:type="arc" transform="translate(139 148.5)" overflow="visible"/><path d="M337.5 227.362a12.5 12.5 0 1 1-25 0 12.5 12.5 0 1 1 25 0z" sodipodi:cx="325" sodipodi:cy="227.362" sodipodi:rx="12.5" sodipodi:ry="12.5" sodipodi:type="arc" transform="translate(211 76.5)" overflow="visible"/><path d="M337.5 227.362a12.5 12.5 0 1 1-25 0 12.5 12.5 0 1 1 25 0z" sodipodi:cx="325" sodipodi:cy="227.362" sodipodi:rx="12.5" sodipodi:ry="12.5" sodipodi:type="arc" transform="translate(211 148.5)" overflow="visible"/></g><g transform="matrix(.5 0 0 .5 -6.357 42.003)"><rect height="150" rx="50" ry="50" width="150" x="413" y="2.862" fill="#fff" overflow="visible"/><path d="M337.5 227.362a12.5 12.5 0 1 1-25 0 12.5 12.5 0 1 1 25 0z" sodipodi:cx="325" sodipodi:cy="227.362" sodipodi:rx="12.5" sodipodi:ry="12.5" sodipodi:type="arc" transform="translate(126.5 -186)" overflow="visible"/><path d="M337.5 227.362a12.5 12.5 0 1 1-25 0 12.5 12.5 0 1 1 25 0z" sodipodi:cx="325" sodipodi:cy="227.362" sodipodi:rx="12.5" sodipodi:ry="12.5" sodipodi:type="arc" transform="translate(198.5 -114)" overflow="visible"/><path d="M337.5 227.362a12.5 12.5 0 1 1-25 0 12.5 12.5 0 1 1 25 0z" sodipodi:cx="325" sodipodi:cy="227.362" sodipodi:rx="12.5" sodipodi:ry="12.5" sodipodi:type="arc" transform="translate(162.5 -150)" overflow="visible"/></g><g transform="matrix(.5 0 0 .5 -185.357 23.253)"><rect height="150" rx="50" ry="50" width="150" x="613" y="40.362" fill="#fff" overflow="visible"/><path d="M337.5 227.362a12.5 12.5 0 1 1-25 0 12.5 12.5 0 1 1 25 0z" sodipodi:cx="325" sodipodi:cy="227.362" sodipodi:rx="12.5" sodipodi:ry="12.5" sodipodi:type="arc" transform="translate(326.5 -148.5)" overflow="visible"/><path d="M337.5 227.362a12.5 12.5 0 1 1-25 0 12.5 12.5 0 1 1 25 0z" sodipodi:cx="325" sodipodi:cy="227.362" sodipodi:rx="12.5" sodipodi:ry="12.5" sodipodi:type="arc" transform="translate(398.5 -76.5)" overflow="visible"/></g><g transform="matrix(.5 0 0 .5 -251.857 -76.747)"><rect height="150" rx="50" ry="50" width="150" x="588" y="240.362" fill="#fff" overflow="visible"/><path d="M337.5 227.362a12.5 12.5 0 1 1-25 0 12.5 12.5 0 1 1 25 0z" sodipodi:cx="325" sodipodi:cy="227.362" sodipodi:rx="12.5" sodipodi:ry="12.5" sodipodi:type="arc" transform="translate(337.5 87.5)" overflow="visible"/></g></g></svg>